<svg width="34" height="34" viewBox="7 7 34 34" fill="none" xmlns="http://www.w3.org/2000/svg">
<line x1="18" y1="12" x2="18" y2="8" stroke="#f0f0ee" stroke-width="1.8" stroke-linecap="round"></line>
<line x1="24" y1="12" x2="24" y2="8" stroke="#f0f0ee" stroke-width="1.8" stroke-linecap="round"></line>
<line x1="30" y1="12" x2="30" y2="8" stroke="#f0f0ee" stroke-width="1.8" stroke-linecap="round"></line>
<line x1="18" y1="36" x2="18" y2="40" stroke="#f0f0ee" stroke-width="1.8" stroke-linecap="round"></line>
<line x1="24" y1="36" x2="24" y2="40" stroke="#f0f0ee" stroke-width="1.8" stroke-linecap="round"></line>
<line x1="30" y1="36" x2="30" y2="40" stroke="#f0f0ee" stroke-width="1.8" stroke-linecap="round"></line>
<line x1="12" y1="18" x2="8" y2="18" stroke="#f0f0ee" stroke-width="1.8" stroke-linecap="round"></line>
<line x1="12" y1="24" x2="8" y2="24" stroke="#f0f0ee" stroke-width="1.8" stroke-linecap="round"></line>
<line x1="12" y1="30" x2="8" y2="30" stroke="#f0f0ee" stroke-width="1.8" stroke-linecap="round"></line>
<line x1="36" y1="18" x2="40" y2="18" stroke="#f0f0ee" stroke-width="1.8" stroke-linecap="round"></line>
<line x1="36" y1="24" x2="40" y2="24" stroke="#f0f0ee" stroke-width="1.8" stroke-linecap="round"></line>
<line x1="36" y1="30" x2="40" y2="30" stroke="#f0f0ee" stroke-width="1.8" stroke-linecap="round"></line>
<rect x="12" y="12" width="24" height="24" rx="3" fill="#d97e3a" stroke="#f0f0ee" stroke-width="2"></rect>
<circle cx="18" cy="18" r="2" fill="#f0f0ee"></circle>
<circle cx="30" cy="18" r="2" fill="#f0f0ee"></circle>
<circle cx="24" cy="24" r="2" fill="#f0f0ee"></circle>
<circle cx="18" cy="30" r="2" fill="#f0f0ee"></circle>
<circle cx="30" cy="30" r="2" fill="#f0f0ee"></circle>
</svg>