<svg width="240" height="34" viewBox="4 7 240 34" fill="none" xmlns="http://www.w3.org/2000/svg" xml:space="preserve">
  <g>
    <line x1="18" y1="12" x2="18" y2="8" stroke="#111110" stroke-width="1.8" stroke-linecap="round"></line>
    <line x1="24" y1="12" x2="24" y2="8" stroke="#111110" stroke-width="1.8" stroke-linecap="round"></line>
    <line x1="30" y1="12" x2="30" y2="8" stroke="#111110" stroke-width="1.8" stroke-linecap="round"></line>
    <line x1="18" y1="36" x2="18" y2="40" stroke="#111110" stroke-width="1.8" stroke-linecap="round"></line>
    <line x1="24" y1="36" x2="24" y2="40" stroke="#111110" stroke-width="1.8" stroke-linecap="round"></line>
    <line x1="30" y1="36" x2="30" y2="40" stroke="#111110" stroke-width="1.8" stroke-linecap="round"></line>
    <line x1="12" y1="18" x2="8" y2="18" stroke="#111110" stroke-width="1.8" stroke-linecap="round"></line>
    <line x1="12" y1="24" x2="8" y2="24" stroke="#111110" stroke-width="1.8" stroke-linecap="round"></line>
    <line x1="12" y1="30" x2="8" y2="30" stroke="#111110" stroke-width="1.8" stroke-linecap="round"></line>
    <line x1="36" y1="18" x2="40" y2="18" stroke="#111110" stroke-width="1.8" stroke-linecap="round"></line>
    <line x1="36" y1="24" x2="40" y2="24" stroke="#111110" stroke-width="1.8" stroke-linecap="round"></line>
    <line x1="36" y1="30" x2="40" y2="30" stroke="#111110" stroke-width="1.8" stroke-linecap="round"></line>
    <rect x="12" y="12" width="24" height="24" rx="3" fill="#c97438" stroke="#111110" stroke-width="2"></rect>
    <circle cx="18" cy="18" r="2" fill="#111110"></circle>
    <circle cx="30" cy="18" r="2" fill="#111110"></circle>
    <circle cx="24" cy="24" r="2" fill="#111110"></circle>
    <circle cx="18" cy="30" r="2" fill="#111110"></circle>
    <circle cx="30" cy="30" r="2" fill="#111110"></circle>
  </g>
  <text x="48" y="31" font-family="'DM Mono','Courier New',monospace" font-size="22" font-weight="500" fill="#111110" letter-spacing="-0.02em" opacity="0.45" textLength="115" lengthAdjust="spacingAndGlyphs">tabletop-</text>
  <text x="163" y="31" font-family="'DM Mono','Courier New',monospace" font-size="22" font-weight="500" fill="#111110" letter-spacing="-0.02em" textLength="77" lengthAdjust="spacingAndGlyphs">engine</text>
</svg>
